<svg width="24" height="24" viewBox="0 0 24 24" fill="none" xmlns="http://www.w3.org/2000/svg">
<g clip-path="url(#clip0_111_52)">
<path d="M4.46471 9.14775C5.83571 9.14775 6.59771 10.164 6.75746 11.2657H2.14721C2.27246 10.215 3.01496 9.1515 4.46396 9.1515L4.46471 9.14775ZM6.72296 12.7702C6.48821 13.926 5.53121 14.7382 4.19096 14.7382C3.46871 14.7382 2.42171 14.469 1.80896 13.824L0.632964 15.1762C1.69496 16.2855 3.28496 16.602 4.37096 16.602C7.01171 16.602 9.06971 14.6947 9.06971 11.9917C9.06971 9.4605 7.17596 7.37475 4.49996 7.37475C1.91396 7.37475 -3.43323e-05 9.35475 -3.43323e-05 11.9767V12.7417H6.72296V12.7702ZM13.2112 16.5982V10.9065C13.2112 9.9345 13.6455 9.37125 14.5515 9.37125C15.3637 9.37125 15.9022 9.957 16.2667 10.3792V16.617H18.618V10.9177C18.618 9.9405 19.032 9.387 19.935 9.387C20.7472 9.387 21.3097 9.97275 21.6532 10.395V16.6327H24.0015V7.5075H21.6495V8.65575C21.2512 8.1945 20.3497 7.398 18.9427 7.398C17.6925 7.398 16.8457 7.92225 16.467 8.988C15.9397 8.22675 14.967 7.398 13.557 7.398C11.8537 7.398 10.8652 8.406 10.8652 10.359V16.602H13.2172L13.2135 16.5937L13.2112 16.5982Z" fill="white"/>
</g>
<defs>
<clipPath id="clip0_111_52">
<rect width="24" height="24" fill="white"/>
</clipPath>
</defs>
</svg>
