<svg width="21" height="21" viewBox="0 0 21 21" fill="none" xmlns="http://www.w3.org/2000/svg">
<path d="M5 9C3.51 9 2.13 9.47 1 10.26V6C1 4.89 1.89 4 3 4H7V2C7 0.89 7.89 0 9 0H13C14.11 0 15 0.89 15 2V4H19C20.11 4 20.99 4.89 20.99 6L21 17C21 18.11 20.11 19 19 19H11.32C11.8274 17.9335 12.0564 16.7559 11.9859 15.577C11.9153 14.3981 11.5474 13.2563 10.9164 12.2579C10.2855 11.2596 9.41202 10.4373 8.37748 9.86758C7.34295 9.2979 6.18101 8.99943 5 9V9ZM13 2H9V4H13V2Z" fill="white"/>
<path d="M5 11C7.76 11 10 13.24 10 16C10 18.76 7.76 21 5 21C2.24 21 0 18.76 0 16C0 13.24 2.24 11 5 11ZM3.35 18.35L5.5 16.2V13H4.5V15.79L2.65 17.64L3.35 18.35V18.35Z" fill="white"/>
</svg>
